# xmcd CD database file
#
# Track frame offsets:
#	183
#	33738
#	56575
#	73903
#	92888
#	103233
#	123515
#	142865
#	161183
#	185255
#
# Disc length: 2754 seconds
#
# Revision: 0
# Processed by: cddbd v1.5.2PL0 Copyright (c) Steve Scherf et al.
# Submitted via: CDex 1.70beta2
#
DISCID=940ac00a
DTITLE=Dusko Goykovich - Swinging Macedonia
DYEAR=1966
DGENRE=Jazz
TTITLE0=Macedonia
TTITLE1=Old Fisherman's Daughter
TTITLE2=Jumbo Uganda
TTITLE3=The Gypsy
TTITLE4=Macedonian Fertility Dance
TTITLE5=Bem Basha
TTITLE6=Saga Se Karame
TTITLE7=Wedding March Of Alexander The Macedonian
TTITLE8=The Nights Of Scopje
TTITLE9=Balcan Blue
EXTD=YEAR: 1966
EXTT0=
EXTT1=
EXTT2=
EXTT3=
EXTT4=
EXTT5=
EXTT6=
EXTT7=
EXTT8=
EXTT9=
PLAYORDER=
